<svg width="96" height="96" fill="none" xmlns="http://www.w3.org/2000/svg"><path d="M19 32.303c0-8.857 0-13.285 1.727-16.668a15.83 15.83 0 0 1 6.925-6.911C31.042 7 35.48 7 44.354 7h7.292c8.874 0 13.312 0 16.702 1.724a15.83 15.83 0 0 1 6.925 6.91C77 19.019 77 23.447 77 32.304v31.394c0 8.857 0 13.285-1.727 16.668a15.83 15.83 0 0 1-6.925 6.911C64.958 89 60.52 89 51.646 89h-7.292c-8.874 0-13.312 0-16.702-1.724a15.83 15.83 0 0 1-6.925-6.91C19 76.981 19 72.553 19 63.696V32.303Z" fill="url(#a)"/><g filter="url(#b)"><path d="M42 21.962c0-.697 0-1.044.033-1.337a5.229 5.229 0 0 1 4.622-4.592C46.949 16 47.3 16 48 16s1.05 0 1.345.033a5.229 5.229 0 0 1 4.622 4.592c.033.293.033.64.033 1.337v19.076c0 .697 0 1.045-.033 1.337a5.229 5.229 0 0 1-4.622 4.592C49.051 47 48.7 47 48 47s-1.05 0-1.345-.033a5.229 5.229 0 0 1-4.622-4.592C42 42.083 42 41.735 42 41.038V21.962Z" fill="#fff"/></g><defs><linearGradient id="a" x1="19" y1="6.349" x2="76.231" y2="87.157" gradientUnits="userSpaceOnUse"><stop stop-color="#67C3EC"/><stop offset="1" stop-color="#4159CE"/></linearGradient><filter id="b" x="18" y="14" width="60" height="79" filterUnits="userSpaceOnUse" color-interpolation-filters="sRGB"><feFlood flood-opacity="0" result="BackgroundImageFix"/><feColorMatrix in="SourceAlpha" values="0 0 0 0 0 0 0 0 0 0 0 0 0 0 0 0 0 0 127 0" result="hardAlpha"/><feOffset dy=".756"/><feGaussianBlur stdDeviation=".412"/><feColorMatrix values="0 0 0 0 0.0941176 0 0 0 0 0.235294 0 0 0 0 0.458824 0 0 0 0.0372022 0"/><feBlend in2="BackgroundImageFix" result="effect1_dropShadow_311_24"/><feColorMatrix in="SourceAlpha" values="0 0 0 0 0 0 0 0 0 0 0 0 0 0 0 0 0 0 127 0" result="hardAlpha"/><feOffset dy="1.911"/><feGaussianBlur stdDeviation="1.042"/><feColorMatrix values="0 0 0 0 0.0941176 0 0 0 0 0.235294 0 0 0 0 0.458824 0 0 0 0.0532451 0"/><feBlend in2="effect1_dropShadow_311_24" result="effect2_dropShadow_311_24"/><feColorMatrix in="SourceAlpha" values="0 0 0 0 0 0 0 0 0 0 0 0 0 0 0 0 0 0 127 0" result="hardAlpha"/><feOffset dy="3.899"/><feGaussianBlur stdDeviation="2.127"/><feColorMatrix values="0 0 0 0 0.0941176 0 0 0 0 0.235294 0 0 0 0 0.458824 0 0 0 0.0667549 0"/><feBlend in2="effect2_dropShadow_311_24" result="effect3_dropShadow_311_24"/><feColorMatrix in="SourceAlpha" values="0 0 0 0 0 0 0 0 0 0 0 0 0 0 0 0 0 0 127 0" result="hardAlpha"/><feOffset dy="8.03"/><feGaussianBlur stdDeviation="4.38"/><feColorMatrix values="0 0 0 0 0.0941176 0 0 0 0 0.235294 0 0 0 0 0.458824 0 0 0 0.0827978 0"/><feBlend in2="effect3_dropShadow_311_24" result="effect4_dropShadow_311_24"/><feColorMatrix in="SourceAlpha" values="0 0 0 0 0 0 0 0 0 0 0 0 0 0 0 0 0 0 127 0" result="hardAlpha"/><feOffset dy="22"/><feGaussianBlur stdDeviation="12"/><feColorMatrix values="0 0 0 0 0.0941176 0 0 0 0 0.235294 0 0 0 0 0.458824 0 0 0 0.12 0"/><feBlend in2="effect4_dropShadow_311_24" result="effect5_dropShadow_311_24"/><feBlend in="SourceGraphic" in2="effect5_dropShadow_311_24" result="shape"/></filter></defs></svg>