<svg width="32" height="32" fill="none" xmlns="http://www.w3.org/2000/svg"><path fill-rule="evenodd" clip-rule="evenodd" d="M6.824 4.948c-.589 1.156-.589 2.668-.589 5.692v10.72c0 3.024 0 4.536.589 5.692a5.4 5.4 0 0 0 2.36 2.36C10.339 30 11.85 30 14.875 30h2.485c3.024 0 4.536 0 5.692-.589a5.4 5.4 0 0 0 2.36-2.36C26 25.896 26 24.385 26 21.36V10.64c0-3.024 0-4.536-.589-5.692a5.4 5.4 0 0 0-2.36-2.36C21.896 2 20.385 2 17.36 2h-2.485c-3.024 0-4.536 0-5.691.589a5.4 5.4 0 0 0-2.36 2.36ZM14.07 6.67c-.011.101-.011.221-.011.462v6.588c0 .24 0 .36.011.462a1.8 1.8 0 0 0 1.586 1.585c.101.012.221.012.462.012.24 0 .36 0 .461-.012a1.8 1.8 0 0 0 1.586-1.585c.012-.101.012-.222.012-.462V7.131c0-.24 0-.36-.012-.462a1.8 1.8 0 0 0-1.586-1.586c-.1-.011-.221-.011-.461-.011-.24 0-.36 0-.462.011A1.8 1.8 0 0 0 14.07 6.67Z" fill="url(#a)"/><defs><linearGradient id="a" x1="6.235" y1="1.778" x2="25.791" y2="29.333" gradientUnits="userSpaceOnUse"><stop stop-color="#67C3EC"/><stop offset="1" stop-color="#4159CE"/></linearGradient></defs></svg>