<?xml version="1.0" encoding="UTF-8"?>
<!--Generator: Apple Native CoreSVG 175.5-->
<!DOCTYPE svg
PUBLIC "-//W3C//DTD SVG 1.1//EN"
       "http://www.w3.org/Graphics/SVG/1.1/DTD/svg11.dtd">
<svg version="1.1" xmlns="http://www.w3.org/2000/svg" xmlns:xlink="http://www.w3.org/1999/xlink" width="9.66797" height="9.67383">
 <g>
  <rect height="9.67383" opacity="0" width="9.66797" x="0" y="0"/>
  <path d="M0 4.83398C0 5.12109 0.240234 5.35547 0.521484 5.35547L4.3125 5.35547L4.3125 9.14648C4.3125 9.42773 4.54688 9.66797 4.83398 9.66797C5.12109 9.66797 5.36133 9.42773 5.36133 9.14648L5.36133 5.35547L9.14648 5.35547C9.42773 5.35547 9.66797 5.12109 9.66797 4.83398C9.66797 4.54688 9.42773 4.30664 9.14648 4.30664L5.36133 4.30664L5.36133 0.521484C5.36133 0.240234 5.12109 0 4.83398 0C4.54688 0 4.3125 0.240234 4.3125 0.521484L4.3125 4.30664L0.521484 4.30664C0.240234 4.30664 0 4.54688 0 4.83398Z" fill="#000000" fill-opacity="0.85"/>
 </g>
</svg>
