<svg width="14" height="14" viewBox="0 0 14 14" fill="none" xmlns="http://www.w3.org/2000/svg">
       <g clip-path="url(#clip0_1_10)">
              <path d="M2 6.83398C2 7.12109 2.24023 7.35547 2.52148 7.35547H6.3125V11.1465C6.3125 11.4277 6.54688 11.668 6.83398 11.668C7.12109 11.668 7.36133 11.4277 7.36133 11.1465V7.35547H11.1465C11.4277 7.35547 11.668 7.12109 11.668 6.83398C11.668 6.54688 11.4277 6.30664 11.1465 6.30664H7.36133V2.52148C7.36133 2.24023 7.12109 2 6.83398 2C6.54688 2 6.3125 2.24023 6.3125 2.52148V6.30664H2.52148C2.24023 6.30664 2 6.54688 2 6.83398Z"
                     fill="black" fill-opacity="0.85" />
       </g>
       <defs>
              <clipPath id="clip0_1_10">
                     <rect width="9.66797" height="9.67383" fill="white" transform="translate(2 2)" />
              </clipPath>
       </defs>
</svg>